#!OML:ASF F:\VICON\USERDATA\INSTALL\rory3\rory3.ASF
:FULLY-SPECIFIED
:DEGREES
2215
root 1.49613 19.4396 5.30723 314.537 -109.696 -312.049
lowerback 7.16138 0.0808276 1.72803
upperback -3.80521 -0.22639 -5.21575
thorax -8.09628 -0.425388 -6.5069
lowerneck -8.30424 -11.5158 -16.1884
upperneck -14.2347 -13.9932 17.763
head -0.357925 -7.01828 7.50155
rclavicle -1.8487e-014 -6.36111e-015
rhumerus 81.5674 -44.1011 -38.1148
rradius 25.8858
rwrist 12.097
rhand -16.416 2.84202
rfingers 7.12502
rthumb 9.7988 -26.91
lclavicle -1.8487e-014 -6.36111e-015
lhumerus -45.0954 -6.89096 54.9805
lradius 103.079
lwrist 20.2604
lhand -22.1664 20.0332
lfingers 7.12502
lthumb 4.24808 49.9706
rfemur -24.1143 2.03477 22.2039
rtibia 33.0383
rfoot 8.62725 -15.1347
rtoes 15.6089
lfemur -11.4907 -2.70019 -7.42556
ltibia 33.6625
lfoot 13.2168 3.4294
ltoes -22.2118
2216
root 1.48732 19.3624 5.30794 313.622 -109.424 -311.196
lowerback 7.09207 0.0934444 1.91923
upperback -3.74082 -0.171571 -5.12003
thorax -7.97909 -0.398215 -6.51724
lowerneck -8.40728 -11.5752 -16.0948
upperneck -14.0815 -14.0723 17.5343
head -0.315792 -7.046 7.39658
rclavicle 1.47101e-014 -1.27222e-014
rhumerus 81.8777 -43.3091 -38.1511
rradius 26.0756
rwrist 11.4909
rhand -13.9812 2.58586
rfingers 7.12502
rthumb 12.1472 -27.0415
lclavicle 1.47101e-014 -1.27222e-014
lhumerus -45.0453 -6.79244 55.3013
lradius 103.415
lwrist 20.3409
lhand -21.7805 19.7386
lfingers 7.12502
lthumb 4.62074 49.6682
rfemur -24.0408 1.75969 22.0731
rtibia 33.0596
rfoot 8.65287 -14.9031
rtoes 15.8324
lfemur -11.5162 -2.8212 -7.50233
ltibia 33.729
lfoot 12.4129 2.55753
ltoes -23.5219
2217
root 1.47683 19.2741 5.30469 312.379 -109.327 -310.121
lowerback 7.1035 -0.00937619 2.13581
upperback -3.78664 -0.284967 -5.09598
thorax -8.05228 -0.467212 -6.60253
lowerneck -8.22647 -11.3572 -15.1961
upperneck -14.0296 -13.8785 17.1236
head -0.458265 -6.98195 7.16447
rclavicle -1.49089e-014 -6.36111e-014
rhumerus 82.0131 -42.0981 -38.5677
rradius 26.1949
rwrist 11.0325
rhand -11.4045 2.44991
rfingers 7.12502
rthumb 14.6308 -27.014
lclavicle -1.49089e-014 -6.36111e-014
lhumerus -45.2458 -6.70328 54.9954
lradius 103.831
lwrist 20.4189
lhand -21.2617 19.3301
lfingers 7.12502
lthumb 5.12169 49.2482
rfemur -23.8334 1.66256 22.1375
rtibia 33.1045
rfoot 8.37102 -14.6669
rtoes 15.7586
lfemur -11.3323 -2.70349 -7.35047
ltibia 33.831
lfoot 11.1788 2.16243
ltoes -24.912
2218
root 1.47073 19.1788 5.30411 311.655 -109.072 -309.565
lowerback 7.06887 -0.00870142 2.11378
upperback -3.74801 -0.271747 -4.99013
thorax -7.98633 -0.451066 -6.47428
lowerneck -8.04154 -11.2681 -14.9102
upperneck -14.2188 -13.795 16.9897
head -0.586433 -6.95712 7.10873
rclavicle -9.74045e-015 -2.54444e-014
rhumerus 82.1505 -40.9836 -38.4387
rradius 26.1857
rwrist 10.498
rhand -8.81817 2.50742
rfingers 7.12502
rthumb 17.1215 -26.7582
lclavicle -9.74045e-015 -2.54444e-014
lhumerus -45.0643 -6.52183 55.0837
lradius 104.211
lwrist 20.465
lhand -20.9156 19.0726
lfingers 7.12502
lthumb 5.45588 48.9823
rfemur -23.653 1.64019 21.9324
rtibia 33.1156
rfoot 7.83338 -14.5019
rtoes 15.173
lfemur -11.0265 -2.59507 -7.50144
ltibia 33.9809
lfoot 9.26446 2.36218
ltoes -26.2684
2219
root 1.47128 19.077 5.30736 311.22 -108.667 -309.226
lowerback 7.05503 0.049201 1.98164
upperback -3.72548 -0.191408 -4.85502
thorax -7.93996 -0.395829 -6.26088
lowerneck -7.9542 -11.3082 -14.9734
upperneck -14.3527 -13.8464 16.9295
head -0.633776 -6.97993 7.1067
rclavicle -2.06736e-014 -2.54444e-014
rhumerus 82.019 -39.9455 -37.6903
rradius 26.1366
rwrist 10.0019
rhand -5.93545 2.7484
rfingers 7.12502
rthumb 19.8944 -26.2533
lclavicle -2.06736e-014 -2.54444e-014
lhumerus -44.7105 -6.36705 55.5194
lradius 104.559
lwrist 20.1945
lhand -20.6777 18.8243
lfingers 7.12502
lthumb 5.6855 48.7281
rfemur -23.5724 1.82384 21.4884
rtibia 33.1245
rfoot 6.94759 -14.5607
rtoes 14.9001
lfemur -10.6793 -2.41344 -7.85199
ltibia 34.1173
lfoot 6.82755 1.87432
ltoes -27.5943
2220
root 1.47484 18.9843 5.3096 310.443 -108.27 -308.483
lowerback 7.02243 0.0851451 1.92759
upperback -3.73324 -0.132959 -4.71457
thorax -7.91954 -0.356838 -6.08469
lowerneck -7.88971 -11.4284 -15.1911
upperneck -14.3347 -13.9883 17.067
head -0.588747 -7.04271 7.16945
rclavicle -2.64384e-014 -3.18055e-014
rhumerus 81.78 -38.8737 -36.9908
rradius 26.097
rwrist 9.82836
rhand -2.96542 3.34116
rfingers 7.12502
rthumb 22.7472 -25.3379
lclavicle -2.64384e-014 -3.18055e-014
lhumerus -44.3225 -6.33521 55.9635
lradius 104.987
lwrist 19.7601
lhand -20.5508 18.566
lfingers 7.12502
lthumb 5.80803 48.4664
rfemur -23.6289 2.32032 21.0135
rtibia 33.1706
rfoot 5.80492 -14.9748
rtoes 15.0823
lfemur -10.3535 -2.17319 -8.03841
ltibia 34.2185
lfoot 4.41419 0.672023
ltoes -29.0557
2221
root 1.47961 18.899 5.31296 309.346 -107.758 -307.45
lowerback 7.04959 0.0687917 1.85482
upperback -3.7077 -0.146804 -4.58461
thorax -7.90709 -0.352331 -5.89986
lowerneck -7.98959 -11.5749 -15.3881
upperneck -14.2145 -14.1515 17.2147
head -0.485396 -7.11108 7.21506
rclavicle -4.92986e-014 0
rhumerus 81.6185 -37.7704 -36.4507
rradius 26.0967
rwrist 9.86697
rhand -0.108612 3.82002
rfingers 7.12502
rthumb 25.4863 -24.4956
lclavicle -4.92986e-014 0
lhumerus -43.8712 -6.25564 56.4507
lradius 105.504
lwrist 19.3745
lhand -20.5424 18.4419
lfingers 7.12502
lthumb 5.81619 48.3421
rfemur -23.6852 2.72385 20.4163
rtibia 33.1892
rfoot 5.12364 -15.0597
rtoes 12.1534
lfemur -10.0546 -2.0429 -8.22383
ltibia 34.3527
lfoot 2.09964 -0.106102
ltoes -30.2082
